<svg width="32" height="32" viewBox="0 0 32 32" fill="none" xmlns="http://www.w3.org/2000/svg">
  <rect width="32" height="32" rx="6" fill="#0ea5e9"/>
  <path d="M16 8C12.6863 8 10 10.6863 10 14C10 17.3137 12.6863 20 16 20C19.3137 20 22 17.3137 22 14C22 10.6863 19.3137 8 16 8Z" fill="white"/>
  <path d="M12 22C11.4477 22 11 22.4477 11 23V24C11 24.5523 11.4477 25 12 25H20C20.5523 25 21 24.5523 21 24V23C21 22.4477 20.5523 22 20 22H12Z" fill="white"/>
  <path d="M14 14L16 16L18 14" stroke="white" stroke-width="2" stroke-linecap="round" stroke-linejoin="round"/>
</svg>

